<?xml version="1.0" encoding="UTF-8"?>
<svg width="60px" height="30px" viewBox="0 0 60 30" version="1.1" xmlns="http://www.w3.org/2000/svg" xmlns:xlink="http://www.w3.org/1999/xlink">
    <!-- Generator: Sketch 42 (36781) - http://www.bohemiancoding.com/sketch -->
    <title>Combined Shape</title>
    <desc>Created with Sketch.</desc>
    <defs></defs>
    <g id="Page-1" stroke="none" stroke-width="1" fill="none" fill-rule="evenodd">
        <g id="Desktop-HD" transform="translate(-919.000000, -460.000000)" fill="#FFFFFF">
            <g id="content" transform="translate(130.000000, 195.000000)">
                <g id="arrow" transform="translate(789.000000, 265.000000)">
                    <path d="M56.8492424,15.5883168 L0.991352499,15.5883168 C0.443843632,15.5883168 0,15.1444519 0,14.5883168 C0,14.036032 0.448458195,13.5883168 0.991352499,13.5883168 L56.5857864,13.5883168 L44.7062201,1.70875046 C44.3161855,1.31871585 44.3138598,0.688670503 44.7071068,0.295423548 C45.0976311,-0.095100744 45.7243611,-0.101535702 46.1204337,0.294536901 L59.5572358,13.731339 C59.5791939,13.7532971 59.5999232,13.7760159 59.6194222,13.7994103 C59.8511094,13.9817663 60,14.2662106 60,14.5883168 C60,14.7867653 59.9420982,14.9717126 59.8427189,15.127239 C59.8159891,15.3398278 59.7206354,15.5453509 59.5572358,15.7087505 L46.1204337,29.1455526 C45.7243611,29.5416252 45.0976311,29.5351902 44.7071068,29.144666 C44.3138598,28.751419 44.3161855,28.1213736 44.7062201,27.731339 L56.8492424,15.5883168 Z" id="Combined-Shape"></path>
                </g>
            </g>
        </g>
    </g>
</svg>