<?xml version="1.0" encoding="UTF-8"?>
<svg width="19px" height="16px" viewBox="0 0 19 16" version="1.1" xmlns="http://www.w3.org/2000/svg" xmlns:xlink="http://www.w3.org/1999/xlink">
    <!-- Generator: Sketch 42 (36781) - http://www.bohemiancoding.com/sketch -->
    <title>001-credit-card</title>
    <desc>Created with Sketch.</desc>
    <defs></defs>
    <g id="Page-1" stroke="none" stroke-width="1" fill="none" fill-rule="evenodd">
        <g id="Desktop-HD" transform="translate(-987.000000, -603.000000)" fill-rule="nonzero" fill="#777777">
            <g id="benefits" transform="translate(840.000000, 596.000000)">
                <g id="secure-payment" transform="translate(147.000000, 0.000000)">
                    <g id="001-credit-card" transform="translate(0.000000, 7.000000)">
                        <g id="Layer_1">
                            <path d="M18.2788601,7.36898522 C18.2788601,7.36898522 17.1553189,7.44137931 16.6152263,7.31416749 L16.6152263,1.00261995 C16.6152263,0.449497659 16.1708092,0.00110344828 15.613287,0.00110344828 L1.00193934,0.00110344828 C0.448583523,0.00110344828 0,0.45813516 0,1.00174773 L0,9.63683355 C0,10.1894741 0.447537815,10.6374778 0.992998586,10.6374778 L9.27884156,10.6374778 C9.77104321,12.4446502 10.628858,13.6399606 11.3734938,14.386601 C12.5473889,15.5637044 13.7063107,15.9222463 13.7550617,15.9369458 L13.9229342,15.9875074 L14.0908066,15.9369458 C14.1395967,15.9222463 15.2984794,15.5637044 16.4723745,14.386601 C17.5349671,13.3211034 18.8291564,11.3439212 18.9603971,7.97540887 L18.9886626,7.2506798 L18.2788601,7.36898522 Z M15.4423868,1.18336946 L15.4423868,2.75972414 L1.17283951,2.75972414 L1.17283951,1.18336946 L15.4423868,1.18336946 Z M1.17283951,9.45521182 L1.17283951,3.94199015 L15.4423868,3.94199015 L15.4423868,6.84981281 C15.0484691,6.62431527 14.6790247,6.33501478 14.3452737,5.98581281 L13.9229733,5.544 L13.5006728,5.98581281 C12.4324506,7.10340887 10.9988889,7.60764532 9.56708642,7.36902463 L8.85724486,7.25075862 L8.88551029,7.97548768 C8.90603498,8.50214778 8.95498148,8.99479803 9.02703292,9.45525123 L1.17283951,9.45525123 L1.17283951,9.45521182 Z M15.6902078,13.5028966 C14.9638683,14.2464236 14.2423765,14.605399 13.9229733,14.7397044 C13.60357,14.605399 12.8820782,14.2464236 12.1557387,13.5028966 C10.982,12.3013596 10.2924877,10.6559212 10.1016667,8.60512315 C11.4740844,8.64173399 12.8365329,8.14470936 13.9229733,7.20748768 C14.9721955,8.11263054 16.2792078,8.6070936 17.6032263,8.60701478 C17.650179,8.60701478 17.6973272,8.60638424 17.7442798,8.60516256 C17.5534588,10.6559606 16.8639465,12.3013596 15.6902078,13.5028966 Z" id="Shape"></path>
                        </g>
                    </g>
                </g>
            </g>
        </g>
    </g>
</svg>