<?xml version="1.0" encoding="UTF-8"?>
<svg width="25px" height="14px" viewBox="0 0 25 14" version="1.1" xmlns="http://www.w3.org/2000/svg" xmlns:xlink="http://www.w3.org/1999/xlink">
    <!-- Generator: Sketch 42 (36781) - http://www.bohemiancoding.com/sketch -->
    <title>002-delivery</title>
    <desc>Created with Sketch.</desc>
    <defs></defs>
    <g id="Page-1" stroke="none" stroke-width="1" fill="none" fill-rule="evenodd">
        <g id="Desktop-HD" transform="translate(-840.000000, -604.000000)" fill-rule="nonzero" fill="#777777">
            <g id="benefits" transform="translate(840.000000, 596.000000)">
                <g id="free-shipping">
                    <g id="002-delivery" transform="translate(0.000000, 8.000000)">
                        <g id="Capa_1">
                            <g id="Group">
                                <path d="M23.890593,3.23197026 C23.2157464,2.48773234 22.2546012,2.07657993 21.1860941,2.07657993 L18.6145194,2.07657993 L18.6145194,0.660966543 C18.6145194,0.317472119 18.3384458,0.0364312268 18.0010225,0.0364312268 L5.75153374,0.0364312268 C5.41411043,0.0364312268 5.13803681,0.317472119 5.13803681,0.660966543 L5.13803681,2.83643123 L2.75051125,2.83643123 C2.41308793,2.83643123 2.13701431,3.11747212 2.13701431,3.46096654 C2.13701431,3.80446097 2.41308793,4.08550186 2.75051125,4.08550186 L5.73619632,4.08550186 L5.75153374,4.08550186 L5.75664622,4.08550186 C6.09406953,4.08550186 6.37014315,3.80446097 6.37014315,3.46096654 L6.37014315,1.28550186 L17.392638,1.28550186 L17.392638,2.70111524 L17.392638,11.0750929 L11.6155419,11.0750929 C11.5899796,11.0750929 11.5644172,11.0750929 11.5388548,11.0802974 C11.2321063,10.3100372 10.4907975,9.76356877 9.62678937,9.76356877 C8.75766871,9.76356877 8.01635992,10.3152416 7.71472393,11.0907063 C7.66871166,11.0802974 7.62781186,11.0750929 7.58179959,11.0750929 L6.37014315,11.0750929 L6.37014315,8.89442379 C6.37014315,8.55092937 6.09406953,8.26988848 5.75664622,8.26988848 L5.72597137,8.26988848 L5.700409,8.26988848 L2.75051125,8.26988848 C2.41308793,8.26988848 2.13701431,8.55092937 2.13701431,8.89442379 C2.13701431,9.23791822 2.41308793,9.51895911 2.75051125,9.51895911 L5.13803681,9.51895911 L5.13803681,11.6944238 C5.13803681,12.0379182 5.41411043,12.3189591 5.75153374,12.3189591 L7.57668712,12.3189591 L7.61758691,12.3189591 C7.82208589,13.2557621 8.64519427,13.9531599 9.62678937,13.9531599 C10.6083845,13.9531599 11.4263804,13.2557621 11.6359918,12.3189591 L18.006135,12.3189591 L18.9877301,12.3189591 C19.1973415,13.2505576 20.0153374,13.9531599 20.9969325,13.9531599 C21.9785276,13.9531599 22.7965235,13.2557621 23.006135,12.3189591 L24.3762781,12.3189591 C24.7137014,12.3189591 24.9897751,12.0379182 24.9897751,11.6944238 L24.9897751,6.50557621 C24.9897751,5.15762082 24.6063395,4.02304833 23.890593,3.23197026 Z M9.62678937,12.7092937 C9.16666667,12.7092937 8.79345603,12.329368 8.79345603,11.8609665 C8.79345603,11.3925651 9.16666667,11.0126394 9.62678937,11.0126394 C10.0869121,11.0126394 10.4601227,11.3925651 10.4601227,11.8609665 C10.4601227,12.329368 10.0869121,12.7092937 9.62678937,12.7092937 Z M20.9969325,12.7092937 C20.5368098,12.7092937 20.1635992,12.329368 20.1635992,11.8609665 C20.1635992,11.3925651 20.5368098,11.0126394 20.9969325,11.0126394 C21.4570552,11.0126394 21.8302658,11.3925651 21.8302658,11.8609665 C21.8251534,12.329368 21.4519427,12.7092937 20.9969325,12.7092937 Z M23.7627812,11.0750929 L22.9038855,11.0750929 C22.597137,10.3100372 21.8558282,9.76356877 20.9969325,9.76356877 C20.1380368,9.76356877 19.396728,10.3048327 19.0899796,11.0750929 L18.6196319,11.0750929 L18.6196319,3.32565056 L21.1912065,3.32565056 C22.801636,3.32565056 23.7627812,4.51747212 23.7627812,6.51078067 L23.7627812,11.0750929 Z" id="Shape" opacity="0.769999981"></path>
                                <path d="M10.5368098,7.34869888 C10.2965235,7.59330855 10.2965235,7.98884758 10.5368098,8.23345725 C10.6543967,8.35315985 10.8128834,8.41561338 10.9713701,8.41561338 C11.1298569,8.41561338 11.2832311,8.35315985 11.4059305,8.23345725 L12.9856851,6.62527881 L12.9907975,6.62007435 C13.0010225,6.60446097 13.0163599,6.59405204 13.0265849,6.57843866 C13.0316973,6.56802974 13.0368098,6.56282528 13.0419223,6.55241636 C13.0470348,6.54200743 13.0521472,6.53680297 13.0623722,6.52639405 C13.0674847,6.51598513 13.0725971,6.50557621 13.0777096,6.49516729 C13.0828221,6.48475836 13.0879346,6.4795539 13.093047,6.46914498 C13.0981595,6.45873606 13.103272,6.44832714 13.1083845,6.43791822 C13.1134969,6.42750929 13.1186094,6.42230483 13.1186094,6.41189591 C13.1237219,6.40148699 13.1237219,6.39107807 13.1288344,6.38066914 C13.1339468,6.37026022 13.1339468,6.3598513 13.1390593,6.35464684 C13.1441718,6.34423792 13.1441718,6.333829 13.1441718,6.32342007 C13.1441718,6.31301115 13.1492843,6.30260223 13.1492843,6.29219331 C13.1492843,6.28178439 13.1543967,6.27137546 13.1543967,6.25576208 C13.1543967,6.24535316 13.1595092,6.2401487 13.1595092,6.22973978 C13.1646217,6.18810409 13.1646217,6.1464684 13.1595092,6.10483271 C13.1595092,6.09442379 13.1595092,6.08921933 13.1543967,6.07881041 C13.1543967,6.06840149 13.1492843,6.05799257 13.1492843,6.04237918 C13.1492843,6.03197026 13.1441718,6.02156134 13.1441718,6.01115242 C13.1441718,6.00074349 13.1390593,5.99033457 13.1390593,5.97992565 C13.1339468,5.96951673 13.1339468,5.95910781 13.1288344,5.95390335 C13.1237219,5.94349442 13.1237219,5.9330855 13.1186094,5.92267658 C13.1134969,5.91226766 13.1083845,5.9070632 13.1083845,5.89665428 C13.103272,5.88624535 13.0981595,5.87583643 13.093047,5.86542751 C13.0879346,5.85501859 13.0828221,5.84981413 13.0777096,5.8394052 C13.0725971,5.82899628 13.0674847,5.81858736 13.0623722,5.80817844 C13.0572597,5.79776952 13.0521472,5.79256506 13.0419223,5.78215613 C13.0368098,5.77174721 13.0316973,5.76654275 13.0265849,5.75613383 C13.0163599,5.74052045 13.0010225,5.73011152 12.9907975,5.71449814 L12.9856851,5.70929368 L11.4826176,4.17918216 C11.2423313,3.93457249 10.8537832,3.93457249 10.6134969,4.17918216 C10.3732106,4.42379182 10.3732106,4.81933086 10.6134969,5.06394052 L11.0685072,5.52713755 L0.613496933,5.52713755 C0.27607362,5.52713755 0,5.80817844 0,6.15167286 C0,6.49516729 0.27607362,6.77620818 0.613496933,6.77620818 L11.0633947,6.77620818 L10.5368098,7.34869888 Z" id="Shape" opacity="0.98999995"></path>
                            </g>
                        </g>
                    </g>
                </g>
            </g>
        </g>
    </g>
</svg>